<svg viewBox="0 0 910 168" xmlns="http://www.w3.org/2000/svg" font-family="Segoe UI, Helvetica, Arial, sans-serif">

        <style>
          .cell {
            opacity: 0;
            transform: translate(0, -6px);
            animation: dropIn 0.5s ease-out forwards;
          }
          @keyframes dropIn {
            to { opacity: 1; transform: translate(0, 0); }
          }
          .month-label { fill: #8b949e; font-size: 10px; }
          .legend-label { fill: #8b949e; font-size: 9px; }
          .footer { fill: #c9d1d9; font-size: 12px; }
        </style>
        
<text class="month-label" x="28" y="24">Jul</text>
<text class="month-label" x="56" y="24">Aug</text>
<text class="month-label" x="126" y="24">Sep</text>
<text class="month-label" x="182" y="24">Oct</text>
<text class="month-label" x="238" y="24">Nov</text>
<text class="month-label" x="308" y="24">Dec</text>
<text class="month-label" x="364" y="24">Jan</text>
<text class="month-label" x="420" y="24">Feb</text>
<text class="month-label" x="476" y="24">Mar</text>
<text class="month-label" x="546" y="24">Apr</text>
<text class="month-label" x="602" y="24">May</text>
<text class="month-label" x="672" y="24">Jun</text>
<text class="month-label" x="728" y="24">Jul</text>
<rect class="cell" x="28" y="36" width="11" height="11" rx="2" ry="2" fill="#161b22" style="animation-delay:0.000s" />
<rect class="cell" x="28" y="50" width="11" height="11" rx="2" ry="2" fill="#161b22" style="animation-delay:0.012s" />
<rect class="cell" x="28" y="64" width="11" height="11" rx="2" ry="2" fill="#161b22" style="animation-delay:0.024s" />
<rect class="cell" x="28" y="78" width="11" height="11" rx="2" ry="2" fill="#161b22" style="animation-delay:0.036s" />
<rect class="cell" x="28" y="92" width="11" height="11" rx="2" ry="2" fill="#161b22" style="animation-delay:0.048s" />
<rect class="cell" x="28" y="106" width="11" height="11" rx="2" ry="2" fill="#161b22" style="animation-delay:0.060s" />
<rect class="cell" x="28" y="120" width="11" height="11" rx="2" ry="2" fill="#161b22" style="animation-delay:0.072s" />
<rect class="cell" x="42" y="36" width="11" height="11" rx="2" ry="2" fill="#161b22" style="animation-delay:0.012s" />
<rect class="cell" x="42" y="50" width="11" height="11" rx="2" ry="2" fill="#161b22" style="animation-delay:0.024s" />
<rect class="cell" x="42" y="64" width="11" height="11" rx="2" ry="2" fill="#161b22" style="animation-delay:0.036s" />
<rect class="cell" x="42" y="78" width="11" height="11" rx="2" ry="2" fill="#161b22" style="animation-delay:0.048s" />
<rect class="cell" x="42" y="92" width="11" height="11" rx="2" ry="2" fill="#161b22" style="animation-delay:0.060s" />
<rect class="cell" x="42" y="106" width="11" height="11" rx="2" ry="2" fill="#161b22" style="animation-delay:0.072s" />
<rect class="cell" x="42" y="120" width="11" height="11" rx="2" ry="2" fill="#161b22" style="animation-delay:0.084s" />
<rect class="cell" x="56" y="36" width="11" height="11" rx="2" ry="2" fill="#161b22" style="animation-delay:0.024s" />
<rect class="cell" x="56" y="50" width="11" height="11" rx="2" ry="2" fill="#161b22" style="animation-delay:0.036s" />
<rect class="cell" x="56" y="64" width="11" height="11" rx="2" ry="2" fill="#161b22" style="animation-delay:0.048s" />
<rect class="cell" x="56" y="78" width="11" height="11" rx="2" ry="2" fill="#161b22" style="animation-delay:0.060s" />
<rect class="cell" x="56" y="92" width="11" height="11" rx="2" ry="2" fill="#161b22" style="animation-delay:0.072s" />
<rect class="cell" x="56" y="106" width="11" height="11" rx="2" ry="2" fill="#161b22" style="animation-delay:0.084s" />
<rect class="cell" x="56" y="120" width="11" height="11" rx="2" ry="2" fill="#161b22" style="animation-delay:0.096s" />
<rect class="cell" x="70" y="36" width="11" height="11" rx="2" ry="2" fill="#161b22" style="animation-delay:0.036s" />
<rect class="cell" x="70" y="50" width="11" height="11" rx="2" ry="2" fill="#161b22" style="animation-delay:0.048s" />
<rect class="cell" x="70" y="64" width="11" height="11" rx="2" ry="2" fill="#161b22" style="animation-delay:0.060s" />
<rect class="cell" x="70" y="78" width="11" height="11" rx="2" ry="2" fill="#161b22" style="animation-delay:0.072s" />
<rect class="cell" x="70" y="92" width="11" height="11" rx="2" ry="2" fill="#161b22" style="animation-delay:0.084s" />
<rect class="cell" x="70" y="106" width="11" height="11" rx="2" ry="2" fill="#161b22" style="animation-delay:0.096s" />
<rect class="cell" x="70" y="120" width="11" height="11" rx="2" ry="2" fill="#161b22" style="animation-delay:0.108s" />
<rect class="cell" x="84" y="36" width="11" height="11" rx="2" ry="2" fill="#161b22" style="animation-delay:0.048s" />
<rect class="cell" x="84" y="50" width="11" height="11" rx="2" ry="2" fill="#161b22" style="animation-delay:0.060s" />
<rect class="cell" x="84" y="64" width="11" height="11" rx="2" ry="2" fill="#161b22" style="animation-delay:0.072s" />
<rect class="cell" x="84" y="78" width="11" height="11" rx="2" ry="2" fill="#161b22" style="animation-delay:0.084s" />
<rect class="cell" x="84" y="92" width="11" height="11" rx="2" ry="2" fill="#161b22" style="animation-delay:0.096s" />
<rect class="cell" x="84" y="106" width="11" height="11" rx="2" ry="2" fill="#161b22" style="animation-delay:0.108s" />
<rect class="cell" x="84" y="120" width="11" height="11" rx="2" ry="2" fill="#161b22" style="animation-delay:0.120s" />
<rect class="cell" x="98" y="36" width="11" height="11" rx="2" ry="2" fill="#161b22" style="animation-delay:0.060s" />
<rect class="cell" x="98" y="50" width="11" height="11" rx="2" ry="2" fill="#161b22" style="animation-delay:0.072s" />
<rect class="cell" x="98" y="64" width="11" height="11" rx="2" ry="2" fill="#161b22" style="animation-delay:0.084s" />
<rect class="cell" x="98" y="78" width="11" height="11" rx="2" ry="2" fill="#161b22" style="animation-delay:0.096s" />
<rect class="cell" x="98" y="92" width="11" height="11" rx="2" ry="2" fill="#161b22" style="animation-delay:0.108s" />
<rect class="cell" x="98" y="106" width="11" height="11" rx="2" ry="2" fill="#161b22" style="animation-delay:0.120s" />
<rect class="cell" x="98" y="120" width="11" height="11" rx="2" ry="2" fill="#161b22" style="animation-delay:0.132s" />
<rect class="cell" x="112" y="36" width="11" height="11" rx="2" ry="2" fill="#161b22" style="animation-delay:0.072s" />
<rect class="cell" x="112" y="50" width="11" height="11" rx="2" ry="2" fill="#161b22" style="animation-delay:0.084s" />
<rect class="cell" x="112" y="64" width="11" height="11" rx="2" ry="2" fill="#161b22" style="animation-delay:0.096s" />
<rect class="cell" x="112" y="78" width="11" height="11" rx="2" ry="2" fill="#161b22" style="animation-delay:0.108s" />
<rect class="cell" x="112" y="92" width="11" height="11" rx="2" ry="2" fill="#161b22" style="animation-delay:0.120s" />
<rect class="cell" x="112" y="106" width="11" height="11" rx="2" ry="2" fill="#161b22" style="animation-delay:0.132s" />
<rect class="cell" x="112" y="120" width="11" height="11" rx="2" ry="2" fill="#161b22" style="animation-delay:0.144s" />
<rect class="cell" x="126" y="36" width="11" height="11" rx="2" ry="2" fill="#161b22" style="animation-delay:0.084s" />
<rect class="cell" x="126" y="50" width="11" height="11" rx="2" ry="2" fill="#161b22" style="animation-delay:0.096s" />
<rect class="cell" x="126" y="64" width="11" height="11" rx="2" ry="2" fill="#161b22" style="animation-delay:0.108s" />
<rect class="cell" x="126" y="78" width="11" height="11" rx="2" ry="2" fill="#161b22" style="animation-delay:0.120s" />
<rect class="cell" x="126" y="92" width="11" height="11" rx="2" ry="2" fill="#161b22" style="animation-delay:0.132s" />
<rect class="cell" x="126" y="106" width="11" height="11" rx="2" ry="2" fill="#161b22" style="animation-delay:0.144s" />
<rect class="cell" x="126" y="120" width="11" height="11" rx="2" ry="2" fill="#161b22" style="animation-delay:0.156s" />
<rect class="cell" x="140" y="36" width="11" height="11" rx="2" ry="2" fill="#161b22" style="animation-delay:0.096s" />
<rect class="cell" x="140" y="50" width="11" height="11" rx="2" ry="2" fill="#161b22" style="animation-delay:0.108s" />
<rect class="cell" x="140" y="64" width="11" height="11" rx="2" ry="2" fill="#161b22" style="animation-delay:0.120s" />
<rect class="cell" x="140" y="78" width="11" height="11" rx="2" ry="2" fill="#161b22" style="animation-delay:0.132s" />
<rect class="cell" x="140" y="92" width="11" height="11" rx="2" ry="2" fill="#161b22" style="animation-delay:0.144s" />
<rect class="cell" x="140" y="106" width="11" height="11" rx="2" ry="2" fill="#161b22" style="animation-delay:0.156s" />
<rect class="cell" x="140" y="120" width="11" height="11" rx="2" ry="2" fill="#161b22" style="animation-delay:0.168s" />
<rect class="cell" x="154" y="36" width="11" height="11" rx="2" ry="2" fill="#161b22" style="animation-delay:0.108s" />
<rect class="cell" x="154" y="50" width="11" height="11" rx="2" ry="2" fill="#161b22" style="animation-delay:0.120s" />
<rect class="cell" x="154" y="64" width="11" height="11" rx="2" ry="2" fill="#161b22" style="animation-delay:0.132s" />
<rect class="cell" x="154" y="78" width="11" height="11" rx="2" ry="2" fill="#161b22" style="animation-delay:0.144s" />
<rect class="cell" x="154" y="92" width="11" height="11" rx="2" ry="2" fill="#161b22" style="animation-delay:0.156s" />
<rect class="cell" x="154" y="106" width="11" height="11" rx="2" ry="2" fill="#161b22" style="animation-delay:0.168s" />
<rect class="cell" x="154" y="120" width="11" height="11" rx="2" ry="2" fill="#161b22" style="animation-delay:0.180s" />
<rect class="cell" x="168" y="36" width="11" height="11" rx="2" ry="2" fill="#161b22" style="animation-delay:0.120s" />
<rect class="cell" x="168" y="50" width="11" height="11" rx="2" ry="2" fill="#161b22" style="animation-delay:0.132s" />
<rect class="cell" x="168" y="64" width="11" height="11" rx="2" ry="2" fill="#161b22" style="animation-delay:0.144s" />
<rect class="cell" x="168" y="78" width="11" height="11" rx="2" ry="2" fill="#161b22" style="animation-delay:0.156s" />
<rect class="cell" x="168" y="92" width="11" height="11" rx="2" ry="2" fill="#161b22" style="animation-delay:0.168s" />
<rect class="cell" x="168" y="106" width="11" height="11" rx="2" ry="2" fill="#161b22" style="animation-delay:0.180s" />
<rect class="cell" x="168" y="120" width="11" height="11" rx="2" ry="2" fill="#161b22" style="animation-delay:0.192s" />
<rect class="cell" x="182" y="36" width="11" height="11" rx="2" ry="2" fill="#161b22" style="animation-delay:0.132s" />
<rect class="cell" x="182" y="50" width="11" height="11" rx="2" ry="2" fill="#161b22" style="animation-delay:0.144s" />
<rect class="cell" x="182" y="64" width="11" height="11" rx="2" ry="2" fill="#161b22" style="animation-delay:0.156s" />
<rect class="cell" x="182" y="78" width="11" height="11" rx="2" ry="2" fill="#161b22" style="animation-delay:0.168s" />
<rect class="cell" x="182" y="92" width="11" height="11" rx="2" ry="2" fill="#161b22" style="animation-delay:0.180s" />
<rect class="cell" x="182" y="106" width="11" height="11" rx="2" ry="2" fill="#161b22" style="animation-delay:0.192s" />
<rect class="cell" x="182" y="120" width="11" height="11" rx="2" ry="2" fill="#161b22" style="animation-delay:0.204s" />
<rect class="cell" x="196" y="36" width="11" height="11" rx="2" ry="2" fill="#161b22" style="animation-delay:0.144s" />
<rect class="cell" x="196" y="50" width="11" height="11" rx="2" ry="2" fill="#161b22" style="animation-delay:0.156s" />
<rect class="cell" x="196" y="64" width="11" height="11" rx="2" ry="2" fill="#161b22" style="animation-delay:0.168s" />
<rect class="cell" x="196" y="78" width="11" height="11" rx="2" ry="2" fill="#161b22" style="animation-delay:0.180s" />
<rect class="cell" x="196" y="92" width="11" height="11" rx="2" ry="2" fill="#161b22" style="animation-delay:0.192s" />
<rect class="cell" x="196" y="106" width="11" height="11" rx="2" ry="2" fill="#161b22" style="animation-delay:0.204s" />
<rect class="cell" x="196" y="120" width="11" height="11" rx="2" ry="2" fill="#161b22" style="animation-delay:0.216s" />
<rect class="cell" x="210" y="36" width="11" height="11" rx="2" ry="2" fill="#161b22" style="animation-delay:0.156s" />
<rect class="cell" x="210" y="50" width="11" height="11" rx="2" ry="2" fill="#161b22" style="animation-delay:0.168s" />
<rect class="cell" x="210" y="64" width="11" height="11" rx="2" ry="2" fill="#161b22" style="animation-delay:0.180s" />
<rect class="cell" x="210" y="78" width="11" height="11" rx="2" ry="2" fill="#161b22" style="animation-delay:0.192s" />
<rect class="cell" x="210" y="92" width="11" height="11" rx="2" ry="2" fill="#161b22" style="animation-delay:0.204s" />
<rect class="cell" x="210" y="106" width="11" height="11" rx="2" ry="2" fill="#161b22" style="animation-delay:0.216s" />
<rect class="cell" x="210" y="120" width="11" height="11" rx="2" ry="2" fill="#161b22" style="animation-delay:0.228s" />
<rect class="cell" x="224" y="36" width="11" height="11" rx="2" ry="2" fill="#161b22" style="animation-delay:0.168s" />
<rect class="cell" x="224" y="50" width="11" height="11" rx="2" ry="2" fill="#161b22" style="animation-delay:0.180s" />
<rect class="cell" x="224" y="64" width="11" height="11" rx="2" ry="2" fill="#161b22" style="animation-delay:0.192s" />
<rect class="cell" x="224" y="78" width="11" height="11" rx="2" ry="2" fill="#161b22" style="animation-delay:0.204s" />
<rect class="cell" x="224" y="92" width="11" height="11" rx="2" ry="2" fill="#161b22" style="animation-delay:0.216s" />
<rect class="cell" x="224" y="106" width="11" height="11" rx="2" ry="2" fill="#161b22" style="animation-delay:0.228s" />
<rect class="cell" x="224" y="120" width="11" height="11" rx="2" ry="2" fill="#161b22" style="animation-delay:0.240s" />
<rect class="cell" x="238" y="36" width="11" height="11" rx="2" ry="2" fill="#161b22" style="animation-delay:0.180s" />
<rect class="cell" x="238" y="50" width="11" height="11" rx="2" ry="2" fill="#161b22" style="animation-delay:0.192s" />
<rect class="cell" x="238" y="64" width="11" height="11" rx="2" ry="2" fill="#161b22" style="animation-delay:0.204s" />
<rect class="cell" x="238" y="78" width="11" height="11" rx="2" ry="2" fill="#161b22" style="animation-delay:0.216s" />
<rect class="cell" x="238" y="92" width="11" height="11" rx="2" ry="2" fill="#161b22" style="animation-delay:0.228s" />
<rect class="cell" x="238" y="106" width="11" height="11" rx="2" ry="2" fill="#161b22" style="animation-delay:0.240s" />
<rect class="cell" x="238" y="120" width="11" height="11" rx="2" ry="2" fill="#161b22" style="animation-delay:0.252s" />
<rect class="cell" x="252" y="36" width="11" height="11" rx="2" ry="2" fill="#161b22" style="animation-delay:0.192s" />
<rect class="cell" x="252" y="50" width="11" height="11" rx="2" ry="2" fill="#161b22" style="animation-delay:0.204s" />
<rect class="cell" x="252" y="64" width="11" height="11" rx="2" ry="2" fill="#161b22" style="animation-delay:0.216s" />
<rect class="cell" x="252" y="78" width="11" height="11" rx="2" ry="2" fill="#161b22" style="animation-delay:0.228s" />
<rect class="cell" x="252" y="92" width="11" height="11" rx="2" ry="2" fill="#161b22" style="animation-delay:0.240s" />
<rect class="cell" x="252" y="106" width="11" height="11" rx="2" ry="2" fill="#161b22" style="animation-delay:0.252s" />
<rect class="cell" x="252" y="120" width="11" height="11" rx="2" ry="2" fill="#161b22" style="animation-delay:0.264s" />
<rect class="cell" x="266" y="36" width="11" height="11" rx="2" ry="2" fill="#161b22" style="animation-delay:0.204s" />
<rect class="cell" x="266" y="50" width="11" height="11" rx="2" ry="2" fill="#161b22" style="animation-delay:0.216s" />
<rect class="cell" x="266" y="64" width="11" height="11" rx="2" ry="2" fill="#161b22" style="animation-delay:0.228s" />
<rect class="cell" x="266" y="78" width="11" height="11" rx="2" ry="2" fill="#161b22" style="animation-delay:0.240s" />
<rect class="cell" x="266" y="92" width="11" height="11" rx="2" ry="2" fill="#161b22" style="animation-delay:0.252s" />
<rect class="cell" x="266" y="106" width="11" height="11" rx="2" ry="2" fill="#161b22" style="animation-delay:0.264s" />
<rect class="cell" x="266" y="120" width="11" height="11" rx="2" ry="2" fill="#161b22" style="animation-delay:0.276s" />
<rect class="cell" x="280" y="36" width="11" height="11" rx="2" ry="2" fill="#161b22" style="animation-delay:0.216s" />
<rect class="cell" x="280" y="50" width="11" height="11" rx="2" ry="2" fill="#161b22" style="animation-delay:0.228s" />
<rect class="cell" x="280" y="64" width="11" height="11" rx="2" ry="2" fill="#161b22" style="animation-delay:0.240s" />
<rect class="cell" x="280" y="78" width="11" height="11" rx="2" ry="2" fill="#161b22" style="animation-delay:0.252s" />
<rect class="cell" x="280" y="92" width="11" height="11" rx="2" ry="2" fill="#161b22" style="animation-delay:0.264s" />
<rect class="cell" x="280" y="106" width="11" height="11" rx="2" ry="2" fill="#161b22" style="animation-delay:0.276s" />
<rect class="cell" x="280" y="120" width="11" height="11" rx="2" ry="2" fill="#161b22" style="animation-delay:0.288s" />
<rect class="cell" x="294" y="36" width="11" height="11" rx="2" ry="2" fill="#161b22" style="animation-delay:0.228s" />
<rect class="cell" x="294" y="50" width="11" height="11" rx="2" ry="2" fill="#161b22" style="animation-delay:0.240s" />
<rect class="cell" x="294" y="64" width="11" height="11" rx="2" ry="2" fill="#161b22" style="animation-delay:0.252s" />
<rect class="cell" x="294" y="78" width="11" height="11" rx="2" ry="2" fill="#161b22" style="animation-delay:0.264s" />
<rect class="cell" x="294" y="92" width="11" height="11" rx="2" ry="2" fill="#161b22" style="animation-delay:0.276s" />
<rect class="cell" x="294" y="106" width="11" height="11" rx="2" ry="2" fill="#161b22" style="animation-delay:0.288s" />
<rect class="cell" x="294" y="120" width="11" height="11" rx="2" ry="2" fill="#161b22" style="animation-delay:0.300s" />
<rect class="cell" x="308" y="36" width="11" height="11" rx="2" ry="2" fill="#161b22" style="animation-delay:0.240s" />
<rect class="cell" x="308" y="50" width="11" height="11" rx="2" ry="2" fill="#161b22" style="animation-delay:0.252s" />
<rect class="cell" x="308" y="64" width="11" height="11" rx="2" ry="2" fill="#161b22" style="animation-delay:0.264s" />
<rect class="cell" x="308" y="78" width="11" height="11" rx="2" ry="2" fill="#161b22" style="animation-delay:0.276s" />
<rect class="cell" x="308" y="92" width="11" height="11" rx="2" ry="2" fill="#161b22" style="animation-delay:0.288s" />
<rect class="cell" x="308" y="106" width="11" height="11" rx="2" ry="2" fill="#161b22" style="animation-delay:0.300s" />
<rect class="cell" x="308" y="120" width="11" height="11" rx="2" ry="2" fill="#161b22" style="animation-delay:0.312s" />
<rect class="cell" x="322" y="36" width="11" height="11" rx="2" ry="2" fill="#161b22" style="animation-delay:0.252s" />
<rect class="cell" x="322" y="50" width="11" height="11" rx="2" ry="2" fill="#161b22" style="animation-delay:0.264s" />
<rect class="cell" x="322" y="64" width="11" height="11" rx="2" ry="2" fill="#161b22" style="animation-delay:0.276s" />
<rect class="cell" x="322" y="78" width="11" height="11" rx="2" ry="2" fill="#161b22" style="animation-delay:0.288s" />
<rect class="cell" x="322" y="92" width="11" height="11" rx="2" ry="2" fill="#161b22" style="animation-delay:0.300s" />
<rect class="cell" x="322" y="106" width="11" height="11" rx="2" ry="2" fill="#161b22" style="animation-delay:0.312s" />
<rect class="cell" x="322" y="120" width="11" height="11" rx="2" ry="2" fill="#161b22" style="animation-delay:0.324s" />
<rect class="cell" x="336" y="36" width="11" height="11" rx="2" ry="2" fill="#161b22" style="animation-delay:0.264s" />
<rect class="cell" x="336" y="50" width="11" height="11" rx="2" ry="2" fill="#161b22" style="animation-delay:0.276s" />
<rect class="cell" x="336" y="64" width="11" height="11" rx="2" ry="2" fill="#161b22" style="animation-delay:0.288s" />
<rect class="cell" x="336" y="78" width="11" height="11" rx="2" ry="2" fill="#161b22" style="animation-delay:0.300s" />
<rect class="cell" x="336" y="92" width="11" height="11" rx="2" ry="2" fill="#161b22" style="animation-delay:0.312s" />
<rect class="cell" x="336" y="106" width="11" height="11" rx="2" ry="2" fill="#161b22" style="animation-delay:0.324s" />
<rect class="cell" x="336" y="120" width="11" height="11" rx="2" ry="2" fill="#161b22" style="animation-delay:0.336s" />
<rect class="cell" x="350" y="36" width="11" height="11" rx="2" ry="2" fill="#161b22" style="animation-delay:0.276s" />
<rect class="cell" x="350" y="50" width="11" height="11" rx="2" ry="2" fill="#161b22" style="animation-delay:0.288s" />
<rect class="cell" x="350" y="64" width="11" height="11" rx="2" ry="2" fill="#161b22" style="animation-delay:0.300s" />
<rect class="cell" x="350" y="78" width="11" height="11" rx="2" ry="2" fill="#161b22" style="animation-delay:0.312s" />
<rect class="cell" x="350" y="92" width="11" height="11" rx="2" ry="2" fill="#161b22" style="animation-delay:0.324s" />
<rect class="cell" x="350" y="106" width="11" height="11" rx="2" ry="2" fill="#161b22" style="animation-delay:0.336s" />
<rect class="cell" x="350" y="120" width="11" height="11" rx="2" ry="2" fill="#161b22" style="animation-delay:0.348s" />
<rect class="cell" x="364" y="36" width="11" height="11" rx="2" ry="2" fill="#161b22" style="animation-delay:0.288s" />
<rect class="cell" x="364" y="50" width="11" height="11" rx="2" ry="2" fill="#161b22" style="animation-delay:0.300s" />
<rect class="cell" x="364" y="64" width="11" height="11" rx="2" ry="2" fill="#161b22" style="animation-delay:0.312s" />
<rect class="cell" x="364" y="78" width="11" height="11" rx="2" ry="2" fill="#161b22" style="animation-delay:0.324s" />
<rect class="cell" x="364" y="92" width="11" height="11" rx="2" ry="2" fill="#161b22" style="animation-delay:0.336s" />
<rect class="cell" x="364" y="106" width="11" height="11" rx="2" ry="2" fill="#161b22" style="animation-delay:0.348s" />
<rect class="cell" x="364" y="120" width="11" height="11" rx="2" ry="2" fill="#161b22" style="animation-delay:0.360s" />
<rect class="cell" x="378" y="36" width="11" height="11" rx="2" ry="2" fill="#161b22" style="animation-delay:0.300s" />
<rect class="cell" x="378" y="50" width="11" height="11" rx="2" ry="2" fill="#161b22" style="animation-delay:0.312s" />
<rect class="cell" x="378" y="64" width="11" height="11" rx="2" ry="2" fill="#161b22" style="animation-delay:0.324s" />
<rect class="cell" x="378" y="78" width="11" height="11" rx="2" ry="2" fill="#161b22" style="animation-delay:0.336s" />
<rect class="cell" x="378" y="92" width="11" height="11" rx="2" ry="2" fill="#161b22" style="animation-delay:0.348s" />
<rect class="cell" x="378" y="106" width="11" height="11" rx="2" ry="2" fill="#161b22" style="animation-delay:0.360s" />
<rect class="cell" x="378" y="120" width="11" height="11" rx="2" ry="2" fill="#161b22" style="animation-delay:0.372s" />
<rect class="cell" x="392" y="36" width="11" height="11" rx="2" ry="2" fill="#161b22" style="animation-delay:0.312s" />
<rect class="cell" x="392" y="50" width="11" height="11" rx="2" ry="2" fill="#161b22" style="animation-delay:0.324s" />
<rect class="cell" x="392" y="64" width="11" height="11" rx="2" ry="2" fill="#161b22" style="animation-delay:0.336s" />
<rect class="cell" x="392" y="78" width="11" height="11" rx="2" ry="2" fill="#161b22" style="animation-delay:0.348s" />
<rect class="cell" x="392" y="92" width="11" height="11" rx="2" ry="2" fill="#161b22" style="animation-delay:0.360s" />
<rect class="cell" x="392" y="106" width="11" height="11" rx="2" ry="2" fill="#161b22" style="animation-delay:0.372s" />
<rect class="cell" x="392" y="120" width="11" height="11" rx="2" ry="2" fill="#161b22" style="animation-delay:0.384s" />
<rect class="cell" x="406" y="36" width="11" height="11" rx="2" ry="2" fill="#161b22" style="animation-delay:0.324s" />
<rect class="cell" x="406" y="50" width="11" height="11" rx="2" ry="2" fill="#161b22" style="animation-delay:0.336s" />
<rect class="cell" x="406" y="64" width="11" height="11" rx="2" ry="2" fill="#161b22" style="animation-delay:0.348s" />
<rect class="cell" x="406" y="78" width="11" height="11" rx="2" ry="2" fill="#161b22" style="animation-delay:0.360s" />
<rect class="cell" x="406" y="92" width="11" height="11" rx="2" ry="2" fill="#161b22" style="animation-delay:0.372s" />
<rect class="cell" x="406" y="106" width="11" height="11" rx="2" ry="2" fill="#161b22" style="animation-delay:0.384s" />
<rect class="cell" x="406" y="120" width="11" height="11" rx="2" ry="2" fill="#161b22" style="animation-delay:0.396s" />
<rect class="cell" x="420" y="36" width="11" height="11" rx="2" ry="2" fill="#161b22" style="animation-delay:0.336s" />
<rect class="cell" x="420" y="50" width="11" height="11" rx="2" ry="2" fill="#161b22" style="animation-delay:0.348s" />
<rect class="cell" x="420" y="64" width="11" height="11" rx="2" ry="2" fill="#161b22" style="animation-delay:0.360s" />
<rect class="cell" x="420" y="78" width="11" height="11" rx="2" ry="2" fill="#161b22" style="animation-delay:0.372s" />
<rect class="cell" x="420" y="92" width="11" height="11" rx="2" ry="2" fill="#161b22" style="animation-delay:0.384s" />
<rect class="cell" x="420" y="106" width="11" height="11" rx="2" ry="2" fill="#161b22" style="animation-delay:0.396s" />
<rect class="cell" x="420" y="120" width="11" height="11" rx="2" ry="2" fill="#161b22" style="animation-delay:0.408s" />
<rect class="cell" x="434" y="36" width="11" height="11" rx="2" ry="2" fill="#161b22" style="animation-delay:0.348s" />
<rect class="cell" x="434" y="50" width="11" height="11" rx="2" ry="2" fill="#161b22" style="animation-delay:0.360s" />
<rect class="cell" x="434" y="64" width="11" height="11" rx="2" ry="2" fill="#161b22" style="animation-delay:0.372s" />
<rect class="cell" x="434" y="78" width="11" height="11" rx="2" ry="2" fill="#161b22" style="animation-delay:0.384s" />
<rect class="cell" x="434" y="92" width="11" height="11" rx="2" ry="2" fill="#161b22" style="animation-delay:0.396s" />
<rect class="cell" x="434" y="106" width="11" height="11" rx="2" ry="2" fill="#161b22" style="animation-delay:0.408s" />
<rect class="cell" x="434" y="120" width="11" height="11" rx="2" ry="2" fill="#161b22" style="animation-delay:0.420s" />
<rect class="cell" x="448" y="36" width="11" height="11" rx="2" ry="2" fill="#161b22" style="animation-delay:0.360s" />
<rect class="cell" x="448" y="50" width="11" height="11" rx="2" ry="2" fill="#161b22" style="animation-delay:0.372s" />
<rect class="cell" x="448" y="64" width="11" height="11" rx="2" ry="2" fill="#161b22" style="animation-delay:0.384s" />
<rect class="cell" x="448" y="78" width="11" height="11" rx="2" ry="2" fill="#161b22" style="animation-delay:0.396s" />
<rect class="cell" x="448" y="92" width="11" height="11" rx="2" ry="2" fill="#161b22" style="animation-delay:0.408s" />
<rect class="cell" x="448" y="106" width="11" height="11" rx="2" ry="2" fill="#161b22" style="animation-delay:0.420s" />
<rect class="cell" x="448" y="120" width="11" height="11" rx="2" ry="2" fill="#161b22" style="animation-delay:0.432s" />
<rect class="cell" x="462" y="36" width="11" height="11" rx="2" ry="2" fill="#161b22" style="animation-delay:0.372s" />
<rect class="cell" x="462" y="50" width="11" height="11" rx="2" ry="2" fill="#161b22" style="animation-delay:0.384s" />
<rect class="cell" x="462" y="64" width="11" height="11" rx="2" ry="2" fill="#161b22" style="animation-delay:0.396s" />
<rect class="cell" x="462" y="78" width="11" height="11" rx="2" ry="2" fill="#161b22" style="animation-delay:0.408s" />
<rect class="cell" x="462" y="92" width="11" height="11" rx="2" ry="2" fill="#161b22" style="animation-delay:0.420s" />
<rect class="cell" x="462" y="106" width="11" height="11" rx="2" ry="2" fill="#161b22" style="animation-delay:0.432s" />
<rect class="cell" x="462" y="120" width="11" height="11" rx="2" ry="2" fill="#161b22" style="animation-delay:0.444s" />
<rect class="cell" x="476" y="36" width="11" height="11" rx="2" ry="2" fill="#161b22" style="animation-delay:0.384s" />
<rect class="cell" x="476" y="50" width="11" height="11" rx="2" ry="2" fill="#161b22" style="animation-delay:0.396s" />
<rect class="cell" x="476" y="64" width="11" height="11" rx="2" ry="2" fill="#161b22" style="animation-delay:0.408s" />
<rect class="cell" x="476" y="78" width="11" height="11" rx="2" ry="2" fill="#161b22" style="animation-delay:0.420s" />
<rect class="cell" x="476" y="92" width="11" height="11" rx="2" ry="2" fill="#161b22" style="animation-delay:0.432s" />
<rect class="cell" x="476" y="106" width="11" height="11" rx="2" ry="2" fill="#161b22" style="animation-delay:0.444s" />
<rect class="cell" x="476" y="120" width="11" height="11" rx="2" ry="2" fill="#161b22" style="animation-delay:0.456s" />
<rect class="cell" x="490" y="36" width="11" height="11" rx="2" ry="2" fill="#161b22" style="animation-delay:0.396s" />
<rect class="cell" x="490" y="50" width="11" height="11" rx="2" ry="2" fill="#161b22" style="animation-delay:0.408s" />
<rect class="cell" x="490" y="64" width="11" height="11" rx="2" ry="2" fill="#161b22" style="animation-delay:0.420s" />
<rect class="cell" x="490" y="78" width="11" height="11" rx="2" ry="2" fill="#161b22" style="animation-delay:0.432s" />
<rect class="cell" x="490" y="92" width="11" height="11" rx="2" ry="2" fill="#161b22" style="animation-delay:0.444s" />
<rect class="cell" x="490" y="106" width="11" height="11" rx="2" ry="2" fill="#161b22" style="animation-delay:0.456s" />
<rect class="cell" x="490" y="120" width="11" height="11" rx="2" ry="2" fill="#161b22" style="animation-delay:0.468s" />
<rect class="cell" x="504" y="36" width="11" height="11" rx="2" ry="2" fill="#161b22" style="animation-delay:0.408s" />
<rect class="cell" x="504" y="50" width="11" height="11" rx="2" ry="2" fill="#161b22" style="animation-delay:0.420s" />
<rect class="cell" x="504" y="64" width="11" height="11" rx="2" ry="2" fill="#161b22" style="animation-delay:0.432s" />
<rect class="cell" x="504" y="78" width="11" height="11" rx="2" ry="2" fill="#161b22" style="animation-delay:0.444s" />
<rect class="cell" x="504" y="92" width="11" height="11" rx="2" ry="2" fill="#161b22" style="animation-delay:0.456s" />
<rect class="cell" x="504" y="106" width="11" height="11" rx="2" ry="2" fill="#161b22" style="animation-delay:0.468s" />
<rect class="cell" x="504" y="120" width="11" height="11" rx="2" ry="2" fill="#161b22" style="animation-delay:0.480s" />
<rect class="cell" x="518" y="36" width="11" height="11" rx="2" ry="2" fill="#161b22" style="animation-delay:0.420s" />
<rect class="cell" x="518" y="50" width="11" height="11" rx="2" ry="2" fill="#161b22" style="animation-delay:0.432s" />
<rect class="cell" x="518" y="64" width="11" height="11" rx="2" ry="2" fill="#161b22" style="animation-delay:0.444s" />
<rect class="cell" x="518" y="78" width="11" height="11" rx="2" ry="2" fill="#161b22" style="animation-delay:0.456s" />
<rect class="cell" x="518" y="92" width="11" height="11" rx="2" ry="2" fill="#161b22" style="animation-delay:0.468s" />
<rect class="cell" x="518" y="106" width="11" height="11" rx="2" ry="2" fill="#161b22" style="animation-delay:0.480s" />
<rect class="cell" x="518" y="120" width="11" height="11" rx="2" ry="2" fill="#161b22" style="animation-delay:0.492s" />
<rect class="cell" x="532" y="36" width="11" height="11" rx="2" ry="2" fill="#161b22" style="animation-delay:0.432s" />
<rect class="cell" x="532" y="50" width="11" height="11" rx="2" ry="2" fill="#161b22" style="animation-delay:0.444s" />
<rect class="cell" x="532" y="64" width="11" height="11" rx="2" ry="2" fill="#161b22" style="animation-delay:0.456s" />
<rect class="cell" x="532" y="78" width="11" height="11" rx="2" ry="2" fill="#161b22" style="animation-delay:0.468s" />
<rect class="cell" x="532" y="92" width="11" height="11" rx="2" ry="2" fill="#161b22" style="animation-delay:0.480s" />
<rect class="cell" x="532" y="106" width="11" height="11" rx="2" ry="2" fill="#161b22" style="animation-delay:0.492s" />
<rect class="cell" x="532" y="120" width="11" height="11" rx="2" ry="2" fill="#161b22" style="animation-delay:0.504s" />
<rect class="cell" x="546" y="36" width="11" height="11" rx="2" ry="2" fill="#161b22" style="animation-delay:0.444s" />
<rect class="cell" x="546" y="50" width="11" height="11" rx="2" ry="2" fill="#0e4429" style="animation-delay:0.456s" />
<rect class="cell" x="546" y="64" width="11" height="11" rx="2" ry="2" fill="#161b22" style="animation-delay:0.468s" />
<rect class="cell" x="546" y="78" width="11" height="11" rx="2" ry="2" fill="#161b22" style="animation-delay:0.480s" />
<rect class="cell" x="546" y="92" width="11" height="11" rx="2" ry="2" fill="#161b22" style="animation-delay:0.492s" />
<rect class="cell" x="546" y="106" width="11" height="11" rx="2" ry="2" fill="#161b22" style="animation-delay:0.504s" />
<rect class="cell" x="546" y="120" width="11" height="11" rx="2" ry="2" fill="#161b22" style="animation-delay:0.516s" />
<rect class="cell" x="560" y="36" width="11" height="11" rx="2" ry="2" fill="#006d32" style="animation-delay:0.456s" />
<rect class="cell" x="560" y="50" width="11" height="11" rx="2" ry="2" fill="#161b22" style="animation-delay:0.468s" />
<rect class="cell" x="560" y="64" width="11" height="11" rx="2" ry="2" fill="#0e4429" style="animation-delay:0.480s" />
<rect class="cell" x="560" y="78" width="11" height="11" rx="2" ry="2" fill="#161b22" style="animation-delay:0.492s" />
<rect class="cell" x="560" y="92" width="11" height="11" rx="2" ry="2" fill="#161b22" style="animation-delay:0.504s" />
<rect class="cell" x="560" y="106" width="11" height="11" rx="2" ry="2" fill="#161b22" style="animation-delay:0.516s" />
<rect class="cell" x="560" y="120" width="11" height="11" rx="2" ry="2" fill="#161b22" style="animation-delay:0.528s" />
<rect class="cell" x="574" y="36" width="11" height="11" rx="2" ry="2" fill="#161b22" style="animation-delay:0.468s" />
<rect class="cell" x="574" y="50" width="11" height="11" rx="2" ry="2" fill="#161b22" style="animation-delay:0.480s" />
<rect class="cell" x="574" y="64" width="11" height="11" rx="2" ry="2" fill="#161b22" style="animation-delay:0.492s" />
<rect class="cell" x="574" y="78" width="11" height="11" rx="2" ry="2" fill="#161b22" style="animation-delay:0.504s" />
<rect class="cell" x="574" y="92" width="11" height="11" rx="2" ry="2" fill="#0e4429" style="animation-delay:0.516s" />
<rect class="cell" x="574" y="106" width="11" height="11" rx="2" ry="2" fill="#161b22" style="animation-delay:0.528s" />
<rect class="cell" x="574" y="120" width="11" height="11" rx="2" ry="2" fill="#0e4429" style="animation-delay:0.540s" />
<rect class="cell" x="588" y="36" width="11" height="11" rx="2" ry="2" fill="#26a641" style="animation-delay:0.480s" />
<rect class="cell" x="588" y="50" width="11" height="11" rx="2" ry="2" fill="#161b22" style="animation-delay:0.492s" />
<rect class="cell" x="588" y="64" width="11" height="11" rx="2" ry="2" fill="#161b22" style="animation-delay:0.504s" />
<rect class="cell" x="588" y="78" width="11" height="11" rx="2" ry="2" fill="#161b22" style="animation-delay:0.516s" />
<rect class="cell" x="588" y="92" width="11" height="11" rx="2" ry="2" fill="#161b22" style="animation-delay:0.528s" />
<rect class="cell" x="588" y="106" width="11" height="11" rx="2" ry="2" fill="#161b22" style="animation-delay:0.540s" />
<rect class="cell" x="588" y="120" width="11" height="11" rx="2" ry="2" fill="#161b22" style="animation-delay:0.552s" />
<rect class="cell" x="602" y="36" width="11" height="11" rx="2" ry="2" fill="#006d32" style="animation-delay:0.492s" />
<rect class="cell" x="602" y="50" width="11" height="11" rx="2" ry="2" fill="#26a641" style="animation-delay:0.504s" />
<rect class="cell" x="602" y="64" width="11" height="11" rx="2" ry="2" fill="#161b22" style="animation-delay:0.516s" />
<rect class="cell" x="602" y="78" width="11" height="11" rx="2" ry="2" fill="#161b22" style="animation-delay:0.528s" />
<rect class="cell" x="602" y="92" width="11" height="11" rx="2" ry="2" fill="#161b22" style="animation-delay:0.540s" />
<rect class="cell" x="602" y="106" width="11" height="11" rx="2" ry="2" fill="#161b22" style="animation-delay:0.552s" />
<rect class="cell" x="602" y="120" width="11" height="11" rx="2" ry="2" fill="#161b22" style="animation-delay:0.564s" />
<rect class="cell" x="616" y="36" width="11" height="11" rx="2" ry="2" fill="#161b22" style="animation-delay:0.504s" />
<rect class="cell" x="616" y="50" width="11" height="11" rx="2" ry="2" fill="#006d32" style="animation-delay:0.516s" />
<rect class="cell" x="616" y="64" width="11" height="11" rx="2" ry="2" fill="#161b22" style="animation-delay:0.528s" />
<rect class="cell" x="616" y="78" width="11" height="11" rx="2" ry="2" fill="#161b22" style="animation-delay:0.540s" />
<rect class="cell" x="616" y="92" width="11" height="11" rx="2" ry="2" fill="#39d353" style="animation-delay:0.552s" />
<rect class="cell" x="616" y="106" width="11" height="11" rx="2" ry="2" fill="#161b22" style="animation-delay:0.564s" />
<rect class="cell" x="616" y="120" width="11" height="11" rx="2" ry="2" fill="#161b22" style="animation-delay:0.576s" />
<rect class="cell" x="630" y="36" width="11" height="11" rx="2" ry="2" fill="#161b22" style="animation-delay:0.516s" />
<rect class="cell" x="630" y="50" width="11" height="11" rx="2" ry="2" fill="#161b22" style="animation-delay:0.528s" />
<rect class="cell" x="630" y="64" width="11" height="11" rx="2" ry="2" fill="#161b22" style="animation-delay:0.540s" />
<rect class="cell" x="630" y="78" width="11" height="11" rx="2" ry="2" fill="#161b22" style="animation-delay:0.552s" />
<rect class="cell" x="630" y="92" width="11" height="11" rx="2" ry="2" fill="#161b22" style="animation-delay:0.564s" />
<rect class="cell" x="630" y="106" width="11" height="11" rx="2" ry="2" fill="#161b22" style="animation-delay:0.576s" />
<rect class="cell" x="630" y="120" width="11" height="11" rx="2" ry="2" fill="#161b22" style="animation-delay:0.588s" />
<rect class="cell" x="644" y="36" width="11" height="11" rx="2" ry="2" fill="#161b22" style="animation-delay:0.528s" />
<rect class="cell" x="644" y="50" width="11" height="11" rx="2" ry="2" fill="#161b22" style="animation-delay:0.540s" />
<rect class="cell" x="644" y="64" width="11" height="11" rx="2" ry="2" fill="#161b22" style="animation-delay:0.552s" />
<rect class="cell" x="644" y="78" width="11" height="11" rx="2" ry="2" fill="#161b22" style="animation-delay:0.564s" />
<rect class="cell" x="644" y="92" width="11" height="11" rx="2" ry="2" fill="#006d32" style="animation-delay:0.576s" />
<rect class="cell" x="644" y="106" width="11" height="11" rx="2" ry="2" fill="#161b22" style="animation-delay:0.588s" />
<rect class="cell" x="644" y="120" width="11" height="11" rx="2" ry="2" fill="#161b22" style="animation-delay:0.600s" />
<rect class="cell" x="658" y="36" width="11" height="11" rx="2" ry="2" fill="#161b22" style="animation-delay:0.540s" />
<rect class="cell" x="658" y="50" width="11" height="11" rx="2" ry="2" fill="#0e4429" style="animation-delay:0.552s" />
<rect class="cell" x="658" y="64" width="11" height="11" rx="2" ry="2" fill="#161b22" style="animation-delay:0.564s" />
<rect class="cell" x="658" y="78" width="11" height="11" rx="2" ry="2" fill="#161b22" style="animation-delay:0.576s" />
<rect class="cell" x="658" y="92" width="11" height="11" rx="2" ry="2" fill="#161b22" style="animation-delay:0.588s" />
<rect class="cell" x="658" y="106" width="11" height="11" rx="2" ry="2" fill="#161b22" style="animation-delay:0.600s" />
<rect class="cell" x="658" y="120" width="11" height="11" rx="2" ry="2" fill="#161b22" style="animation-delay:0.612s" />
<rect class="cell" x="672" y="36" width="11" height="11" rx="2" ry="2" fill="#161b22" style="animation-delay:0.552s" />
<rect class="cell" x="672" y="50" width="11" height="11" rx="2" ry="2" fill="#26a641" style="animation-delay:0.564s" />
<rect class="cell" x="672" y="64" width="11" height="11" rx="2" ry="2" fill="#161b22" style="animation-delay:0.576s" />
<rect class="cell" x="672" y="78" width="11" height="11" rx="2" ry="2" fill="#0e4429" style="animation-delay:0.588s" />
<rect class="cell" x="672" y="92" width="11" height="11" rx="2" ry="2" fill="#161b22" style="animation-delay:0.600s" />
<rect class="cell" x="672" y="106" width="11" height="11" rx="2" ry="2" fill="#161b22" style="animation-delay:0.612s" />
<rect class="cell" x="672" y="120" width="11" height="11" rx="2" ry="2" fill="#161b22" style="animation-delay:0.624s" />
<rect class="cell" x="686" y="36" width="11" height="11" rx="2" ry="2" fill="#161b22" style="animation-delay:0.564s" />
<rect class="cell" x="686" y="50" width="11" height="11" rx="2" ry="2" fill="#161b22" style="animation-delay:0.576s" />
<rect class="cell" x="686" y="64" width="11" height="11" rx="2" ry="2" fill="#161b22" style="animation-delay:0.588s" />
<rect class="cell" x="686" y="78" width="11" height="11" rx="2" ry="2" fill="#161b22" style="animation-delay:0.600s" />
<rect class="cell" x="686" y="92" width="11" height="11" rx="2" ry="2" fill="#161b22" style="animation-delay:0.612s" />
<rect class="cell" x="686" y="106" width="11" height="11" rx="2" ry="2" fill="#161b22" style="animation-delay:0.624s" />
<rect class="cell" x="686" y="120" width="11" height="11" rx="2" ry="2" fill="#161b22" style="animation-delay:0.636s" />
<rect class="cell" x="700" y="36" width="11" height="11" rx="2" ry="2" fill="#161b22" style="animation-delay:0.576s" />
<rect class="cell" x="700" y="50" width="11" height="11" rx="2" ry="2" fill="#0e4429" style="animation-delay:0.588s" />
<rect class="cell" x="700" y="64" width="11" height="11" rx="2" ry="2" fill="#161b22" style="animation-delay:0.600s" />
<rect class="cell" x="700" y="78" width="11" height="11" rx="2" ry="2" fill="#161b22" style="animation-delay:0.612s" />
<rect class="cell" x="700" y="92" width="11" height="11" rx="2" ry="2" fill="#161b22" style="animation-delay:0.624s" />
<rect class="cell" x="700" y="106" width="11" height="11" rx="2" ry="2" fill="#161b22" style="animation-delay:0.636s" />
<rect class="cell" x="700" y="120" width="11" height="11" rx="2" ry="2" fill="#161b22" style="animation-delay:0.648s" />
<rect class="cell" x="714" y="36" width="11" height="11" rx="2" ry="2" fill="#161b22" style="animation-delay:0.588s" />
<rect class="cell" x="714" y="50" width="11" height="11" rx="2" ry="2" fill="#161b22" style="animation-delay:0.600s" />
<rect class="cell" x="714" y="64" width="11" height="11" rx="2" ry="2" fill="#161b22" style="animation-delay:0.612s" />
<rect class="cell" x="714" y="78" width="11" height="11" rx="2" ry="2" fill="#161b22" style="animation-delay:0.624s" />
<rect class="cell" x="714" y="92" width="11" height="11" rx="2" ry="2" fill="#161b22" style="animation-delay:0.636s" />
<rect class="cell" x="714" y="106" width="11" height="11" rx="2" ry="2" fill="#161b22" style="animation-delay:0.648s" />
<rect class="cell" x="714" y="120" width="11" height="11" rx="2" ry="2" fill="#161b22" style="animation-delay:0.660s" />
<rect class="cell" x="728" y="36" width="11" height="11" rx="2" ry="2" fill="#0e4429" style="animation-delay:0.600s" />
<rect class="cell" x="728" y="50" width="11" height="11" rx="2" ry="2" fill="#161b22" style="animation-delay:0.612s" />
<rect class="cell" x="728" y="64" width="11" height="11" rx="2" ry="2" fill="#161b22" style="animation-delay:0.624s" />
<rect class="cell" x="728" y="78" width="11" height="11" rx="2" ry="2" fill="#161b22" style="animation-delay:0.636s" />
<rect class="cell" x="728" y="92" width="11" height="11" rx="2" ry="2" fill="#161b22" style="animation-delay:0.648s" />
<rect class="cell" x="728" y="106" width="11" height="11" rx="2" ry="2" fill="#161b22" style="animation-delay:0.660s" />
<rect class="cell" x="728" y="120" width="11" height="11" rx="2" ry="2" fill="#161b22" style="animation-delay:0.672s" />
<rect class="cell" x="742" y="36" width="11" height="11" rx="2" ry="2" fill="#161b22" style="animation-delay:0.612s" />
<rect class="cell" x="742" y="50" width="11" height="11" rx="2" ry="2" fill="#161b22" style="animation-delay:0.624s" />
<rect class="cell" x="742" y="64" width="11" height="11" rx="2" ry="2" fill="#161b22" style="animation-delay:0.636s" />
<rect class="cell" x="742" y="78" width="11" height="11" rx="2" ry="2" fill="#161b22" style="animation-delay:0.648s" />
<rect class="cell" x="742" y="92" width="11" height="11" rx="2" ry="2" fill="#161b22" style="animation-delay:0.660s" />
<rect class="cell" x="742" y="106" width="11" height="11" rx="2" ry="2" fill="#161b22" style="animation-delay:0.672s" />
<rect class="cell" x="742" y="120" width="11" height="11" rx="2" ry="2" fill="#161b22" style="animation-delay:0.684s" />
<rect class="cell" x="756" y="36" width="11" height="11" rx="2" ry="2" fill="#161b22" style="animation-delay:0.624s" />
<rect class="cell" x="756" y="50" width="11" height="11" rx="2" ry="2" fill="#161b22" style="animation-delay:0.636s" />
<rect class="cell" x="756" y="64" width="11" height="11" rx="2" ry="2" fill="#161b22" style="animation-delay:0.648s" />
<rect class="cell" x="756" y="78" width="11" height="11" rx="2" ry="2" fill="#26a641" style="animation-delay:0.660s" />
<rect class="cell" x="756" y="92" width="11" height="11" rx="2" ry="2" fill="#161b22" style="animation-delay:0.672s" />
<rect class="cell" x="756" y="106" width="11" height="11" rx="2" ry="2" fill="#161b22" style="animation-delay:0.684s" />
<rect class="cell" x="756" y="120" width="11" height="11" rx="2" ry="2" fill="#161b22" style="animation-delay:0.696s" />
<text class="legend-label" x="784" y="46">Less</text>
<rect x="818" y="36" width="11" height="11" rx="2" ry="2" fill="#161b22" />
<rect x="831" y="36" width="11" height="11" rx="2" ry="2" fill="#0e4429" />
<rect x="844" y="36" width="11" height="11" rx="2" ry="2" fill="#006d32" />
<rect x="857" y="36" width="11" height="11" rx="2" ry="2" fill="#26a641" />
<rect x="870" y="36" width="11" height="11" rx="2" ry="2" fill="#39d353" />
<rect x="883" y="36" width="11" height="11" rx="2" ry="2" fill="#69f0a0" />
<text class="legend-label" x="900" y="46">More</text>
<text class="footer" x="28" y="156">17 contributions in the last year  ·  longest streak 2 days</text>
</svg>